{
	"asset":{
		"generator":"Khronos glTF Blender I/O v4.1.63",
		"version":"2.0"
	},
	"scene":0,
	"scenes":[
		{
			"name":"Scene",
			"nodes":[
				0,
				1,
				2,
				3,
				4,
				5,
				6,
				7,
				8
			]
		}
	],
	"nodes":[
		{
			"name":"\u4e0b\u7d75",
			"rotation":[
				0.70710688829422,
				0,
				0,
				0.7071066498756409
			],
			"translation":[
				0.06063442304730415,
				0,
				-7.944174766540527
			]
		},
		{
			"mesh":0,
			"name":"karada",
			"scale":[
				3.054321765899658,
				3.2422595024108887,
				2.870265007019043
			],
			"translation":[
				0.03638065233826637,
				2.6277859210968018,
				0
			]
		},
		{
			"mesh":1,
			"name":"hana",
			"scale":[
				0.07030283659696579,
				0.07030283659696579,
				0.06559894979000092
			],
			"translation":[
				0.142024427652359,
				2.8153674602508545,
				2.051863670349121
			]
		},
		{
			"mesh":2,
			"name":"hige",
			"rotation":[
				0.702893078327179,
				0.0770798996090889,
				-0.15375319123268127,
				0.6901883482933044
			],
			"scale":[
				0.9082623720169067,
				3.117543935775757,
				0.8448420166969299
			],
			"translation":[
				-0.221658855676651,
				0.9644137620925903,
				1.9566023349761963
			]
		},
		{
			"mesh":3,
			"name":"mayu",
			"rotation":[
				0.6067790389060974,
				0.2886992394924164,
				-0.02858494594693184,
				0.7400370836257935
			],
			"scale":[
				0.5385531187057495,
				2.408379554748535,
				0.48785585165023804
			],
			"translation":[
				0.7026858329772949,
				3.020209312438965,
				1.8126705884933472
			]
		},
		{
			"mesh":4,
			"name":"shita1",
			"rotation":[
				0.29583871364593506,
				0,
				0,
				0.9552379846572876
			],
			"scale":[
				0.22752702236175537,
				0.5085552334785461,
				0.21456602215766907
			],
			"translation":[
				0.010184635408222675,
				0.9456996917724609,
				1.7873878479003906
			]
		},
		{
			"mesh":5,
			"name":"shita1.001",
			"rotation":[
				0.28855425119400024,
				-0.06524575501680374,
				-0.21067307889461517,
				0.9317169785499573
			],
			"scale":[
				0.22752702236175537,
				0.5085552334785461,
				0.21456600725650787
			],
			"translation":[
				1.18467378616333,
				0.9456996917724609,
				1.5014994144439697
			]
		},
		{
			"mesh":6,
			"name":"kuti",
			"rotation":[
				-0.46893081068992615,
				-0.5736320614814758,
				-0.48483213782310486,
				0.46474510431289673
			],
			"scale":[
				-0.09268344193696976,
				-0.9961974620819092,
				-0.080929234623909
			],
			"translation":[
				0.02925354242324829,
				2.041095495223999,
				1.9490182399749756
			]
		},
		{
			"mesh":7,
			"name":"me",
			"rotation":[
				0.7071068286895752,
				0,
				0,
				0.7071068286895752
			],
			"scale":[
				0.3801589608192444,
				0.3801589608192444,
				0.3801589608192444
			],
			"translation":[
				0.7943487167358398,
				3.2639200687408447,
				1.5874005556106567
			]
		}
	],
	"materials":[
		{
			"doubleSided":true,
			"name":"\u30de\u30c6\u30ea\u30a2\u30eb.005",
			"pbrMetallicRoughness":{
				"baseColorTexture":{
					"index":0,
					"texCoord":1
				},
				"metallicFactor":0,
				"roughnessFactor":0.4000000059604645
			}
		},
		{
			"doubleSided":true,
			"name":"\u30de\u30c6\u30ea\u30a2\u30eb.003",
			"pbrMetallicRoughness":{
				"baseColorFactor":[
					0.0020283586345613003,
					0.0020283586345613003,
					0.0020283586345613003,
					1
				],
				"metallicFactor":0
			}
		},
		{
			"doubleSided":true,
			"name":"\u30de\u30c6\u30ea\u30a2\u30eb.004",
			"pbrMetallicRoughness":{
				"baseColorFactor":[
					1,
					0.44283372163772583,
					0.06095126271247864,
					1
				],
				"metallicFactor":0
			}
		},
		{
			"doubleSided":true,
			"name":"\u30de\u30c6\u30ea\u30a2\u30eb.006",
			"pbrMetallicRoughness":{
				"baseColorTexture":{
					"index":1
				},
				"metallicFactor":0
			}
		}
	],
	"meshes":[
		{
			"name":"\u7acb\u65b9\u4f53",
			"primitives":[
				{
					"attributes":{
						"POSITION":0,
						"NORMAL":1,
						"TEXCOORD_0":2,
						"TEXCOORD_1":3
					},
					"indices":4,
					"material":0
				}
			]
		},
		{
			"name":"ICO\u7403.001",
			"primitives":[
				{
					"attributes":{
						"POSITION":5,
						"NORMAL":6,
						"TEXCOORD_0":7
					},
					"indices":8,
					"material":1
				}
			]
		},
		{
			"name":"\u5186",
			"primitives":[
				{
					"attributes":{
						"POSITION":9,
						"NORMAL":10,
						"TEXCOORD_0":11
					},
					"indices":12,
					"material":1
				}
			]
		},
		{
			"name":"\u5186.001",
			"primitives":[
				{
					"attributes":{
						"POSITION":13,
						"NORMAL":14,
						"TEXCOORD_0":15
					},
					"indices":16,
					"material":1
				}
			]
		},
		{
			"name":"\u7403",
			"primitives":[
				{
					"attributes":{
						"POSITION":17,
						"NORMAL":18,
						"TEXCOORD_0":19
					},
					"indices":20,
					"material":2
				}
			]
		},
		{
			"name":"\u7403.001",
			"primitives":[
				{
					"attributes":{
						"POSITION":21,
						"NORMAL":22,
						"TEXCOORD_0":23
					},
					"indices":24,
					"material":2
				}
			]
		},
		{
			"name":"\u5186\u67f1",
			"primitives":[
				{
					"attributes":{
						"POSITION":25,
						"NORMAL":26,
						"TEXCOORD_0":27
					},
					"indices":28,
					"material":1
				}
			]
		},
		{
			"name":"\u7403.002",
			"primitives":[
				{
					"attributes":{
						"POSITION":29,
						"NORMAL":30,
						"TEXCOORD_0":31
					},
					"indices":32,
					"material":3
				}
			]
		}
	],
	"textures":[
		{
			"sampler":0,
			"source":0
		},
		{
			"sampler":0,
			"source":1
		}
	],
	"images":[
		{
			"mimeType":"image/png",
			"name":"kara",
			"uri":"kara.png"
		},
		{
			"mimeType":"image/png",
			"name":"me",
			"uri":"me.png"
		}
	],
	"accessors":[
		{
			"bufferView":0,
			"componentType":5126,
			"count":2008,
			"max":[
				0.8015922904014587,
				0.8646012544631958,
				0.7191513180732727
			],
			"min":[
				-0.8015923500061035,
				-0.8015923500061035,
				-0.8015922904014587
			],
			"type":"VEC3"
		},
		{
			"bufferView":1,
			"componentType":5126,
			"count":2008,
			"type":"VEC3"
		},
		{
			"bufferView":2,
			"componentType":5126,
			"count":2008,
			"type":"VEC2"
		},
		{
			"bufferView":3,
			"componentType":5126,
			"count":2008,
			"type":"VEC2"
		},
		{
			"bufferView":4,
			"componentType":5123,
			"count":10560,
			"type":"SCALAR"
		},
		{
			"bufferView":5,
			"componentType":5126,
			"count":2098,
			"max":[
				0.923734188079834,
				0.9303051829338074,
				0.9248635768890381
			],
			"min":[
				-3.9291257858276367,
				-0.9303051829338074,
				-0.9248656630516052
			],
			"type":"VEC3"
		},
		{
			"bufferView":6,
			"componentType":5126,
			"count":2098,
			"type":"VEC3"
		},
		{
			"bufferView":7,
			"componentType":5126,
			"count":2098,
			"type":"VEC2"
		},
		{
			"bufferView":8,
			"componentType":5123,
			"count":11520,
			"type":"SCALAR"
		},
		{
			"bufferView":9,
			"componentType":5126,
			"count":176,
			"max":[
				1.8965208530426025,
				0.11142046749591827,
				-1.0004124641418457
			],
			"min":[
				-1.5054138898849487,
				-0.3145095705986023,
				-2.0717263221740723
			],
			"type":"VEC3"
		},
		{
			"bufferView":10,
			"componentType":5126,
			"count":176,
			"type":"VEC3"
		},
		{
			"bufferView":11,
			"componentType":5126,
			"count":176,
			"type":"VEC2"
		},
		{
			"bufferView":12,
			"componentType":5123,
			"count":1032,
			"type":"SCALAR"
		},
		{
			"bufferView":13,
			"componentType":5126,
			"count":176,
			"max":[
				1.8965208530426025,
				0.11142046749591827,
				-1.3129992485046387
			],
			"min":[
				-2.1968536376953125,
				-0.38907644152641296,
				-3.9299190044403076
			],
			"type":"VEC3"
		},
		{
			"bufferView":14,
			"componentType":5126,
			"count":176,
			"type":"VEC3"
		},
		{
			"bufferView":15,
			"componentType":5126,
			"count":176,
			"type":"VEC2"
		},
		{
			"bufferView":16,
			"componentType":5123,
			"count":1032,
			"type":"SCALAR"
		},
		{
			"bufferView":17,
			"componentType":5126,
			"count":559,
			"max":[
				0.9999997019767761,
				1,
				0.9999993443489075
			],
			"min":[
				-0.9999990463256836,
				-1,
				-1
			],
			"type":"VEC3"
		},
		{
			"bufferView":18,
			"componentType":5126,
			"count":559,
			"type":"VEC3"
		},
		{
			"bufferView":19,
			"componentType":5126,
			"count":559,
			"type":"VEC2"
		},
		{
			"bufferView":20,
			"componentType":5123,
			"count":2880,
			"type":"SCALAR"
		},
		{
			"bufferView":21,
			"componentType":5126,
			"count":1118,
			"max":[
				0.9999997019767761,
				1,
				3.67642879486084
			],
			"min":[
				-10.723419189453125,
				-2.4069488048553467,
				-1
			],
			"type":"VEC3"
		},
		{
			"bufferView":22,
			"componentType":5126,
			"count":1118,
			"type":"VEC3"
		},
		{
			"bufferView":23,
			"componentType":5126,
			"count":1118,
			"type":"VEC2"
		},
		{
			"bufferView":24,
			"componentType":5123,
			"count":5760,
			"type":"SCALAR"
		},
		{
			"bufferView":25,
			"componentType":5126,
			"count":2240,
			"max":[
				1.000009536743164,
				0.7728928327560425,
				1.8980889320373535
			],
			"min":[
				-1.0000134706497192,
				-0.7728928327560425,
				-1.0217125415802002
			],
			"type":"VEC3"
		},
		{
			"bufferView":26,
			"componentType":5126,
			"count":2240,
			"type":"VEC3"
		},
		{
			"bufferView":27,
			"componentType":5126,
			"count":2240,
			"type":"VEC2"
		},
		{
			"bufferView":28,
			"componentType":5123,
			"count":3444,
			"type":"SCALAR"
		},
		{
			"bufferView":29,
			"componentType":5126,
			"count":2236,
			"max":[
				0.9999997019767761,
				1,
				0.9999997019767761
			],
			"min":[
				-4.987637042999268,
				-1,
				-1
			],
			"type":"VEC3"
		},
		{
			"bufferView":30,
			"componentType":5126,
			"count":2236,
			"type":"VEC3"
		},
		{
			"bufferView":31,
			"componentType":5126,
			"count":2236,
			"type":"VEC2"
		},
		{
			"bufferView":32,
			"componentType":5123,
			"count":11520,
			"type":"SCALAR"
		}
	],
	"bufferViews":[
		{
			"buffer":0,
			"byteLength":24096,
			"byteOffset":0,
			"target":34962
		},
		{
			"buffer":0,
			"byteLength":24096,
			"byteOffset":24096,
			"target":34962
		},
		{
			"buffer":0,
			"byteLength":16064,
			"byteOffset":48192,
			"target":34962
		},
		{
			"buffer":0,
			"byteLength":16064,
			"byteOffset":64256,
			"target":34962
		},
		{
			"buffer":0,
			"byteLength":21120,
			"byteOffset":80320,
			"target":34963
		},
		{
			"buffer":0,
			"byteLength":25176,
			"byteOffset":101440,
			"target":34962
		},
		{
			"buffer":0,
			"byteLength":25176,
			"byteOffset":126616,
			"target":34962
		},
		{
			"buffer":0,
			"byteLength":16784,
			"byteOffset":151792,
			"target":34962
		},
		{
			"buffer":0,
			"byteLength":23040,
			"byteOffset":168576,
			"target":34963
		},
		{
			"buffer":0,
			"byteLength":2112,
			"byteOffset":191616,
			"target":34962
		},
		{
			"buffer":0,
			"byteLength":2112,
			"byteOffset":193728,
			"target":34962
		},
		{
			"buffer":0,
			"byteLength":1408,
			"byteOffset":195840,
			"target":34962
		},
		{
			"buffer":0,
			"byteLength":2064,
			"byteOffset":197248,
			"target":34963
		},
		{
			"buffer":0,
			"byteLength":2112,
			"byteOffset":199312,
			"target":34962
		},
		{
			"buffer":0,
			"byteLength":2112,
			"byteOffset":201424,
			"target":34962
		},
		{
			"buffer":0,
			"byteLength":1408,
			"byteOffset":203536,
			"target":34962
		},
		{
			"buffer":0,
			"byteLength":2064,
			"byteOffset":204944,
			"target":34963
		},
		{
			"buffer":0,
			"byteLength":6708,
			"byteOffset":207008,
			"target":34962
		},
		{
			"buffer":0,
			"byteLength":6708,
			"byteOffset":213716,
			"target":34962
		},
		{
			"buffer":0,
			"byteLength":4472,
			"byteOffset":220424,
			"target":34962
		},
		{
			"buffer":0,
			"byteLength":5760,
			"byteOffset":224896,
			"target":34963
		},
		{
			"buffer":0,
			"byteLength":13416,
			"byteOffset":230656,
			"target":34962
		},
		{
			"buffer":0,
			"byteLength":13416,
			"byteOffset":244072,
			"target":34962
		},
		{
			"buffer":0,
			"byteLength":8944,
			"byteOffset":257488,
			"target":34962
		},
		{
			"buffer":0,
			"byteLength":11520,
			"byteOffset":266432,
			"target":34963
		},
		{
			"buffer":0,
			"byteLength":26880,
			"byteOffset":277952,
			"target":34962
		},
		{
			"buffer":0,
			"byteLength":26880,
			"byteOffset":304832,
			"target":34962
		},
		{
			"buffer":0,
			"byteLength":17920,
			"byteOffset":331712,
			"target":34962
		},
		{
			"buffer":0,
			"byteLength":6888,
			"byteOffset":349632,
			"target":34963
		},
		{
			"buffer":0,
			"byteLength":26832,
			"byteOffset":356520,
			"target":34962
		},
		{
			"buffer":0,
			"byteLength":26832,
			"byteOffset":383352,
			"target":34962
		},
		{
			"buffer":0,
			"byteLength":17888,
			"byteOffset":410184,
			"target":34962
		},
		{
			"buffer":0,
			"byteLength":23040,
			"byteOffset":428072,
			"target":34963
		}
	],
	"samplers":[
		{
			"magFilter":9729,
			"minFilter":9987
		}
	],
	"buffers":[
		{
			"byteLength":451112,
			"uri":"main-Daruma3.bin"
		}
	]
}
